HIERARCHY
ROOT joint_Root
{
	OFFSET 0.0 0.0 0.0
	CHANNELS 6 Xposition Yposition Zposition Zrotation Xrotation Yrotation 
	JOINT Hips
	{
		OFFSET -0.726466 93.3139 -2.00062
		CHANNELS 6 Xposition Yposition Zposition Zrotation Xrotation Yrotation 
		JOINT Spine
		{
			OFFSET 15.7357 0.0 0.0
			CHANNELS 6 Xposition Yposition Zposition Zrotation Xrotation Yrotation 
			JOINT Chest
			{
				OFFSET 8.98455 -0.406207 0.0
				CHANNELS 6 Xposition Yposition Zposition Zrotation Xrotation Yrotation 
				JOINT Neck
				{
					OFFSET 16.3773 0.0 0.0
					CHANNELS 6 Xposition Yposition Zposition Zrotation Xrotation Yrotation 
					JOINT Head
					{
						OFFSET 6.45672 0.0 0.0
						CHANNELS 6 Xposition Yposition Zposition Zrotation Xrotation Yrotation 
						End Site
						{
							OFFSET 0.0 0.0 0.0
						}
					}
				}
				JOINT Shoulder_L
				{
					OFFSET 12.9942 -0.242716 4.98039
					CHANNELS 6 Xposition Yposition Zposition Zrotation Xrotation Yrotation 
					JOINT UpperArm_L
					{
						OFFSET 5.34809 0.0 0.0
						CHANNELS 6 Xposition Yposition Zposition Zrotation Xrotation Yrotation 
						JOINT LowerArm_L
						{
							OFFSET 24.3286 1.87007e-05 0.0
							CHANNELS 6 Xposition Yposition Zposition Zrotation Xrotation Yrotation 
							JOINT Hand_L
							{
								OFFSET 22.2916 0.0 0.0
								CHANNELS 6 Xposition Yposition Zposition Zrotation Xrotation Yrotation 
								End Site
								{
									OFFSET 0.0 0.0 0.0
								}
							}
						}
					}
				}
				JOINT Shoulder_R
				{
					OFFSET 12.9945 -0.242716 -4.98039
					CHANNELS 6 Xposition Yposition Zposition Zrotation Xrotation Yrotation 
					JOINT UpperArm_R
					{
						OFFSET -5.34813 0.0 0.0
						CHANNELS 6 Xposition Yposition Zposition Zrotation Xrotation Yrotation 
						JOINT LowerArm_R
						{
							OFFSET -24.3289 0.000322201 0.0
							CHANNELS 6 Xposition Yposition Zposition Zrotation Xrotation Yrotation 
							JOINT Hand_R
							{
								OFFSET -22.2915 -0.000108084 0.0
								CHANNELS 6 Xposition Yposition Zposition Zrotation Xrotation Yrotation 
								End Site
								{
									OFFSET 0.0 0.0 0.0
								}
							}
						}
					}
				}
			}
		}
		JOINT UpperLeg_L
		{
			OFFSET -2.19248 -6.46944 0.0
			CHANNELS 6 Xposition Yposition Zposition Zrotation Xrotation Yrotation 
			JOINT LowerLeg_L
			{
				OFFSET 39.0811 0.0 -1.23785e-05
				CHANNELS 6 Xposition Yposition Zposition Zrotation Xrotation Yrotation 
				JOINT Foot_L
				{
					OFFSET 40.9854 0.0 -1.26872e-05
					CHANNELS 6 Xposition Yposition Zposition Zrotation Xrotation Yrotation 
					JOINT Toes_L
					{
						OFFSET 11.7543 0.0 0.0
						CHANNELS 6 Xposition Yposition Zposition Zrotation Xrotation Yrotation 
						End Site
						{
							OFFSET 0.0 0.0 0.0
						}
					}
				}
			}
		}
		JOINT UpperLeg_R
		{
			OFFSET -2.19251 6.46944 0.0
			CHANNELS 6 Xposition Yposition Zposition Zrotation Xrotation Yrotation 
			JOINT LowerLeg_R
			{
				OFFSET -39.0811 -0.00228153 -0.0401928
				CHANNELS 6 Xposition Yposition Zposition Zrotation Xrotation Yrotation 
				JOINT Foot_R
				{
					OFFSET -40.9854 0.0 0.0
					CHANNELS 6 Xposition Yposition Zposition Zrotation Xrotation Yrotation 
					JOINT Toes_R
					{
						OFFSET -11.7543 0.0 0.0
						CHANNELS 6 Xposition Yposition Zposition Zrotation Xrotation Yrotation 
						End Site
						{
							OFFSET 0.0 0.0 0.0
						}
					}
				}
			}
		}
	}
}
MOTION
Frames:	5
Frame Time:	0.0333333
0.000000 0.000000 0.000000 0.000000 0.000000 -0.000000 -1.199350 92.313700 -2.206020 87.508900 -1.609520 2.375970 15.735700 0.000005 -0.000001 85.239800 87.374700 -84.593900 8.984550 -0.406207 -0.000000 -2.530470 -0.493604 1.280900 16.377300 -0.000001 -0.000001 -3.565750 -2.755140 1.487960 6.456720 -0.000001 -0.000000 -3.248560 -1.619230 -1.301500 12.994200 -0.242716 4.980390 -85.356600 -10.197400 -65.355700 5.348090 -0.000007 -0.000001 -67.043300 -53.752500 -94.994700 24.328600 0.000019 0.000005 4.769370 2.113300 -66.155700 22.291600 -0.000001 0.000005 17.221500 5.575430 -9.969840 12.994500 -0.242716 -4.980390 91.948100 -4.286900 -65.532900 -5.348130 -0.000001 -0.000004 -56.940100 -51.619300 -105.867000 -24.328900 0.000322 -0.000009 4.808380 3.458330 -54.362500 -22.291500 -0.000108 -0.000004 21.671200 5.550960 -8.751550 -2.192480 -6.469440 -0.000000 -169.156000 -15.174300 -2.867640 39.081100 -0.000007 -0.000012 -0.155350 0.427559 19.968400 40.985400 -0.000006 -0.000013 -5.916370 3.215700 -62.951000 11.754300 -0.000000 0.000003 -0.000027 -0.000330 -16.590400 -2.192510 6.469440 -0.000001 175.995000 19.337400 178.102000 -39.081100 -0.002282 -0.040193 0.031128 -0.082558 18.612400 -40.985400 0.000008 0.000006 -0.207417 1.899500 -62.871400 -11.754300 -0.000006 -0.000006 -0.007020 -0.079837 -19.823200
0.000000 0.000000 0.000000 0.000000 0.000000 -0.000000 -1.190030 92.319000 -2.276190 87.488300 -1.647760 2.363210 15.735700 0.000005 -0.000001 85.455500 87.348800 -84.798800 8.984550 -0.406207 -0.000000 -2.477160 -0.478689 1.303030 16.377300 -0.000001 -0.000001 -3.490260 -2.729060 1.475960 6.456720 -0.000001 -0.000000 -3.284100 -1.612330 -1.289290 12.994200 -0.242716 4.980390 -85.340800 -10.219900 -65.328900 5.348090 -0.000007 -0.000001 -66.891900 -53.748500 -94.813600 24.328600 0.000019 0.000005 4.818640 2.140090 -66.107700 22.291600 -0.000001 0.000005 17.140600 5.572850 -9.834490 12.994500 -0.242716 -4.980390 91.944700 -4.277260 -65.521700 -5.348130 -0.000001 -0.000004 -56.902200 -51.649700 -105.740000 -24.328900 0.000322 -0.000009 4.892810 3.528460 -54.292900 -22.291500 -0.000108 -0.000004 21.825000 5.549320 -8.674260 -2.192480 -6.469440 -0.000000 -169.166000 -15.127900 -2.945420 39.081100 -0.000007 -0.000012 -0.155133 0.426262 19.998600 40.985400 -0.000006 -0.000013 -5.921200 3.092430 -62.925100 11.754300 -0.000000 0.000003 -0.000023 -0.000283 -16.588600 -2.192510 6.469440 -0.000001 176.053000 19.304700 178.027000 -39.081100 -0.002282 -0.040193 0.033080 -0.088331 18.617200 -40.985400 0.000008 0.000006 -0.146035 1.862200 -62.825900 -11.754300 -0.000006 -0.000006 -0.007279 -0.082040 -19.913200
0.000000 0.000000 0.000000 0.000000 0.000000 -0.000000 -1.183720 92.332200 -2.348070 87.524900 -1.698380 2.362560 15.735700 0.000005 -0.000001 85.555100 87.318700 -84.905700 8.984550 -0.406207 -0.000000 -2.416630 -0.473161 1.288740 16.377300 -0.000001 -0.000001 -3.465140 -2.728650 1.469000 6.456720 -0.000001 -0.000000 -3.243360 -1.594290 -1.267450 12.994200 -0.242716 4.980390 -85.321800 -10.245600 -65.293900 5.348090 -0.000007 -0.000001 -66.701700 -53.754100 -94.552700 24.328600 0.000019 0.000005 4.615850 2.055470 -66.046900 22.291600 -0.000001 0.000005 17.136100 5.575410 -9.968670 12.994500 -0.242716 -4.980390 91.937100 -4.258300 -65.511100 -5.348130 -0.000001 -0.000004 -56.868200 -51.635100 -105.685000 -24.328900 0.000322 -0.000009 4.849560 3.519130 -54.122400 -22.291500 -0.000108 -0.000004 21.842300 5.550670 -8.738060 -2.192480 -6.469440 -0.000000 -169.229000 -15.059200 -2.938200 39.081100 -0.000007 -0.000012 -0.154558 0.426994 19.898800 40.985400 -0.000006 -0.000013 -5.925490 2.993340 -62.846400 11.754300 -0.000000 0.000003 -0.000026 -0.000314 -16.589800 -2.192510 6.469440 -0.000001 176.014000 19.295600 177.989000 -39.081100 -0.002282 -0.040193 0.030848 -0.081959 18.563400 -40.985400 0.000008 0.000006 -0.206168 1.915700 -62.734400 -11.754300 -0.000006 -0.000006 -0.006971 -0.079418 -19.806100
0.000000 0.000000 0.000000 0.000000 0.000000 -0.000000 -1.179170 92.338500 -2.420820 87.526400 -1.754350 2.346690 15.735700 0.000005 -0.000001 85.721100 87.288300 -85.062500 8.984550 -0.406207 -0.000000 -2.354820 -0.462675 1.307610 16.377300 -0.000001 -0.000001 -3.427090 -2.755550 1.487580 6.456720 -0.000001 -0.000000 -3.264520 -1.613150 -1.284950 12.994200 -0.242716 4.980390 -85.333300 -10.214400 -65.282300 5.348090 -0.000007 -0.000001 -66.457700 -53.782400 -94.295500 24.328600 0.000019 0.000005 4.622300 2.064860 -65.979700 22.291600 -0.000001 0.000005 17.236900 5.574370 -9.914220 12.994500 -0.242716 -4.980390 91.951500 -4.282430 -65.472400 -5.348130 -0.000001 -0.000004 -56.820400 -51.613600 -105.585000 -24.328900 0.000322 -0.000009 4.887600 3.560540 -54.018000 -22.291500 -0.000108 -0.000004 21.946200 5.548710 -8.645440 -2.192480 -6.469440 -0.000000 -169.252000 -15.137400 -3.002770 39.081100 -0.000007 -0.000012 -0.151288 0.417792 19.906200 40.985400 -0.000006 -0.000013 -5.901780 3.013620 -62.798000 11.754300 -0.000000 0.000003 -0.000026 -0.000319 -16.590000 -2.192510 6.469440 -0.000001 176.042000 19.224900 177.915000 -39.081100 -0.002282 -0.040193 0.031353 -0.083484 18.558900 -40.985400 0.000008 0.000006 -0.189384 1.923780 -62.685600 -11.754300 -0.000006 -0.000006 -0.007372 -0.082824 -19.945100
0.000000 0.000000 0.000000 0.000000 0.000000 -0.000000 -1.185670 92.351100 -2.505780 87.506000 -1.792560 2.301290 15.735700 0.000005 -0.000001 85.803800 87.270800 -85.134800 8.984550 -0.406207 -0.000000 -2.319260 -0.458151 1.328600 16.377300 -0.000001 -0.000001 -3.398760 -2.810600 1.539160 6.456720 -0.000001 -0.000000 -3.230140 -1.688420 -1.209440 12.994200 -0.242716 4.980390 -85.316300 -10.244900 -65.266900 5.348090 -0.000007 -0.000001 -66.467900 -53.722800 -94.143500 24.328600 0.000019 0.000005 4.540630 2.030550 -65.955100 22.291600 -0.000001 0.000005 17.200300 5.575700 -9.983790 12.994500 -0.242716 -4.980390 91.949100 -4.278150 -65.478200 -5.348130 -0.000001 -0.000004 -56.680200 -51.613500 -105.358000 -24.328900 0.000322 -0.000009 4.850680 3.537310 -53.988600 -22.291500 -0.000108 -0.000004 22.040300 5.548300 -8.626420 -2.192480 -6.469440 -0.000000 -169.239000 -15.235000 -3.077010 39.081100 -0.000007 -0.000012 -0.151390 0.419117 19.860400 40.985400 -0.000006 -0.000013 -5.891050 3.060760 -62.711400 11.754300 -0.000000 0.000003 -0.000027 -0.000332 -16.590500 -2.192510 6.469440 -0.000001 176.123000 19.195300 177.809000 -39.081100 -0.002282 -0.040193 0.033143 -0.089009 18.521600 -40.985400 0.000008 0.000006 -0.106996 1.885670 -62.607500 -11.754300 -0.000006 -0.000006 -0.007156 -0.081000 -19.870700
